# xmcd
#
# Track frame offsets:
#	150
#	19042
#	38826
#	58541
#	80184
#	101233
#	125871
#	144153
#	163151
#	181998
#
# Disc length: 2683 seconds
# Revision: 0
# Processed by: cddbd v1.5.2PL0 Copyright (c) Steve Scherf et al.
# Submitted via: dBpowerAMP V12.0
#
DISCID=8a0a790a
DTITLE=The Straight Shot - Can't Make Tears
DYEAR=2011
DGENRE=Blues
TTITLE0=Little White Lies
TTITLE1=Can't Make Tears
TTITLE2=Don't Waste My Time
TTITLE3=Reunion
TTITLE4=Dirty Little Secret
TTITLE5=Try
TTITLE6=Fix The Knicks
TTITLE7=Ghost
TTITLE8=Ready To Go
TTITLE9=Sailor Song (For Bill)
EXTD=
EXTT0=
EXTT1=
EXTT2=
EXTT3=
EXTT4=
EXTT5=
EXTT6=
EXTT7=
EXTT8=
EXTT9=
PLAYORDER=
